<svg width="29" height="29" viewBox="0 0 29 29" fill="none" xmlns="http://www.w3.org/2000/svg">
<g clip-path="url(#clip0_11_6679)">
<path d="M27.7591 11.7244H17.5486C17.319 11.7244 17.1328 11.9102 17.1328 12.1395C17.1328 12.3688 17.319 12.5546 17.5486 12.5546H27.7591C27.9423 12.5546 28.0913 12.7034 28.0913 12.8863V13.2742C28.0913 13.4571 27.9423 13.6059 27.7591 13.6059H25.493C25.2634 13.6059 25.0772 13.7917 25.0772 14.021C25.0772 14.2503 25.2634 14.4361 25.493 14.4361H27.3789V16.1736C27.3789 21.1907 23.2907 25.2725 18.2655 25.2725H11.2768C6.25162 25.2725 2.16334 21.1908 2.16334 16.1736V14.4361H7.3666C7.59622 14.4361 7.78237 14.2503 7.78237 14.021C7.78237 13.7917 7.59622 13.6059 7.3666 13.6059H1.72773C1.54451 13.6059 1.3955 13.4571 1.3955 13.2742V12.8863C1.3955 12.7034 1.54451 12.5546 1.72773 12.5546H7.38207C7.61169 12.5546 7.79784 12.3688 7.79784 12.1395C7.79784 11.9102 7.61169 11.7244 7.38207 11.7244H5.43306V10.5171C5.43306 10.1589 5.24918 9.84285 4.97089 9.65761V5.69242C4.97089 5.53347 5.03436 5.38486 5.14967 5.27406C5.26481 5.16336 5.41571 5.10508 5.57564 5.11183C5.88397 5.12346 6.13476 5.39482 6.13476 5.71683V7.86524C6.13476 8.23175 6.4334 8.52991 6.80049 8.52991H7.96365C8.33074 8.52991 8.62938 8.23175 8.62938 7.86524V5.69242C8.62938 4.86205 8.30158 4.08365 7.70648 3.50057C7.11154 2.91782 6.32679 2.60704 5.49348 2.62132C3.8298 2.65287 2.47628 4.05055 2.47628 5.73698V6.20306C2.47628 6.43236 2.66243 6.61816 2.89205 6.61816C3.12166 6.61816 3.30782 6.43236 3.30782 6.20306V5.73698C3.30782 4.49975 4.2954 3.47439 5.50928 3.45142C5.52392 3.45109 5.5385 3.45097 5.55313 3.45097C6.14391 3.45097 6.70032 3.67806 7.12407 4.09322C7.55852 4.51884 7.79784 5.08682 7.79784 5.69248V7.69981H6.9663V5.71689C6.9663 4.9412 6.3692 4.31107 5.60702 4.28229C5.21946 4.2679 4.85226 4.40754 4.57286 4.67603C4.2933 4.94479 4.1393 5.30577 4.1393 5.69242V9.48448H3.30776V7.97206C3.30776 7.74276 3.12161 7.55696 2.89199 7.55696C2.66238 7.55696 2.47622 7.74276 2.47622 7.97206V9.61875C2.16257 9.79631 1.95008 10.1322 1.95008 10.5171V11.7244H1.72773C1.086 11.7244 0.563965 12.2456 0.563965 12.8863V13.2742C0.563965 13.7759 0.884772 14.2031 1.33186 14.3654V16.1736C1.33186 17.385 1.55061 18.5461 1.95014 19.6203V25.2724H1.63349C1.40387 25.2724 1.21772 25.4582 1.21772 25.6875C1.21772 25.9168 1.40387 26.1026 1.63349 26.1026H11.2768H18.2655H26.5782C26.8078 26.1026 26.9939 25.9168 26.9939 25.6875C26.9939 25.4582 26.8078 25.2724 26.5782 25.2724H22.2441C25.7529 23.7372 28.2104 20.2368 28.2104 16.1736V14.3451C28.6286 14.1687 28.9229 13.7551 28.9229 13.2742V12.8863C28.9229 12.2456 28.4008 11.7244 27.7591 11.7244ZM2.78162 10.5171C2.78162 10.4055 2.87264 10.3147 2.98446 10.3147H4.39863C4.5105 10.3147 4.60147 10.4055 4.60147 10.5171V11.7244H2.78162V10.5171ZM2.78162 21.331C3.28098 22.1479 3.8951 22.8875 4.60152 23.5273V25.2724H2.78162V21.331ZM5.43306 25.2724V24.2024C6.01103 24.6229 6.63579 24.9826 7.29814 25.2724H5.43306Z" fill="#DD9D32"/>
<path d="M23.7211 14.436C23.9507 14.436 24.1368 14.2502 24.1368 14.0209C24.1368 13.7916 23.9507 13.6058 23.7211 13.6058H17.564C17.3343 13.6058 17.1482 13.7916 17.1482 14.0209C17.1482 14.2502 17.3343 14.436 17.564 14.436H23.7211Z" fill="#DD9D32"/>
<path d="M8.61383 23.2532C8.61383 23.5808 8.88075 23.8473 9.20887 23.8473H15.7215C16.0497 23.8473 16.3166 23.5808 16.3166 23.2532V17.8108C16.3166 17.5815 16.1304 17.3957 15.9008 17.3957C15.6712 17.3957 15.485 17.5815 15.485 17.8108V19.4364H9.44531V12.4085C9.44531 12.2238 9.59576 12.0736 9.78075 12.0736H15.1496C15.3345 12.0736 15.485 12.2238 15.485 12.4085V16.0418C15.485 16.2711 15.6712 16.4569 15.9008 16.4569C16.1304 16.4569 16.3166 16.2711 16.3166 16.0418V12.4085C16.3166 11.7661 15.7931 11.2434 15.1496 11.2434H9.78075C9.13731 11.2434 8.61377 11.7661 8.61377 12.4085V23.2532H8.61383ZM9.44536 23.0172V21.852H15.4851V23.0172H9.44536ZM15.4851 20.2667V21.0218H9.44536V20.2667H15.4851Z" fill="#DD9D32"/>
</g>
<defs>
<clipPath id="clip0_11_6679">
<rect width="28.3589" height="28.3136" fill="white" transform="translate(0.563965 0.204956)"/>
</clipPath>
</defs>
</svg>
