<svg width="28" height="26" viewBox="0 0 28 26" fill="none" xmlns="http://www.w3.org/2000/svg">
<g clip-path="url(#clip0_11_6627)">
<path d="M17.4666 16.7183V12.9474C17.4666 12.2621 16.8782 11.7043 16.155 11.7043H3.91343C3.1903 11.7043 2.60183 12.2621 2.60183 12.9474V16.7183C1.60545 16.911 0.853027 17.748 0.853027 18.7482V21.2343V25.3777C0.853027 25.6064 1.04889 25.7921 1.29023 25.7921H3.03903C3.28036 25.7921 3.47623 25.6064 3.47623 25.3777V24.1347H16.5922V25.3777C16.5922 25.6064 16.7881 25.7921 17.0294 25.7921H18.7782C19.0196 25.7921 19.2154 25.6064 19.2154 25.3777V21.2343V18.7482C19.2154 17.748 18.463 16.911 17.4666 16.7183ZM3.47623 12.9474C3.47623 12.7191 3.67253 12.533 3.91343 12.533H16.155C16.3959 12.533 16.5922 12.7191 16.5922 12.9474V16.6765H15.7178V15.0191C15.7178 14.3338 15.1294 13.7761 14.4062 13.7761H11.783C11.0599 13.7761 10.4714 14.3338 10.4714 15.0191V16.6765H9.59703V15.0191C9.59703 14.3338 9.00855 13.7761 8.28543 13.7761H5.66223C4.9391 13.7761 4.35063 14.3338 4.35063 15.0191V16.6765H3.47623V12.9474ZM14.8434 15.0191V16.6765H11.3458V15.0191C11.3458 14.7908 11.5421 14.6048 11.783 14.6048H14.4062C14.6471 14.6048 14.8434 14.7908 14.8434 15.0191ZM8.72263 15.0191V16.6765H5.22503V15.0191C5.22503 14.7908 5.42133 14.6048 5.66223 14.6048H8.28543C8.52632 14.6048 8.72263 14.7908 8.72263 15.0191ZM18.341 24.9634H17.4666V23.7203C17.4666 23.4916 17.2708 23.306 17.0294 23.306H3.03903C2.79769 23.306 2.60183 23.4916 2.60183 23.7203V24.9634H1.72743V21.6486H18.341V24.9634ZM18.341 20.8199H1.72743V18.7482C1.72743 18.0629 2.3159 17.5052 3.03903 17.5052H4.78783H9.15983H10.9086H15.2806H17.0294C17.7526 17.5052 18.341 18.0629 18.341 18.7482V20.8199Z" fill="#DD9D32"/>
<path d="M26.6478 16.6765H20.527C20.2857 16.6765 20.0898 16.8621 20.0898 17.0909V20.4056V23.306H20.9642V20.82H26.2106V23.306H27.085V20.4056V17.0909C27.085 16.8621 26.8892 16.6765 26.6478 16.6765ZM26.2106 19.9913H20.9642V17.5052H26.2106V19.9913Z" fill="#DD9D32"/>
<path d="M24.4619 18.3339H22.7131V19.1626H24.4619V18.3339Z" fill="#DD9D32"/>
<path d="M25.7512 13.2304L24.8768 10.7443C24.8169 10.5752 24.6503 10.4613 24.4619 10.4613H22.7131C22.5247 10.4613 22.3581 10.5752 22.2982 10.7447L21.4238 13.2308C21.3792 13.3572 21.402 13.496 21.4841 13.6041C21.5663 13.7123 21.6984 13.7761 21.8387 13.7761H23.1503V15.0191H22.2759V15.8478H24.8991V15.0191H24.0247V13.7761H25.3363C25.4767 13.7761 25.6087 13.7123 25.6909 13.6037C25.7731 13.4956 25.7954 13.3567 25.7512 13.2304ZM22.4451 12.9474L23.0283 11.29H24.1471L24.7299 12.9474H22.4451Z" fill="#DD9D32"/>
<path d="M26.8266 6.35393L14.1478 0.967444C14.0337 0.91938 13.9039 0.91938 13.7902 0.967444L1.11141 6.35393C0.954021 6.42105 0.853027 6.56897 0.853027 6.73223V11.7044H1.72743V7.00031L13.969 1.79986L26.2106 7.00072V11.7044H27.085V6.73223C27.085 6.56897 26.984 6.42105 26.8266 6.35393Z" fill="#DD9D32"/>
<path d="M16.9871 6.6635L16.1245 6.80107C16.145 6.91418 16.1551 7.0302 16.1551 7.14663C16.1551 8.28898 15.1745 9.21836 13.9691 9.21836C12.7637 9.21836 11.7831 8.28898 11.7831 7.14663C11.7831 6.00428 12.7637 5.07491 13.9691 5.07491C14.2192 5.07491 14.4649 5.11468 14.6983 5.19299L14.9895 4.41154C14.6621 4.30174 14.3189 4.24622 13.9691 4.24622C12.2815 4.24622 10.9087 5.54726 10.9087 7.14663C10.9087 8.746 12.2815 10.047 13.9691 10.047C15.6567 10.047 17.0295 8.746 17.0295 7.14663C17.0295 6.98421 17.0151 6.82178 16.9871 6.6635Z" fill="#DD9D32"/>
<path d="M16.7204 4.36755L13.9691 6.97503L13.4038 6.43928L12.7856 7.02516L13.66 7.85385C13.7453 7.93465 13.8572 7.97525 13.9691 7.97525C14.0811 7.97525 14.193 7.93465 14.2782 7.85385L17.3386 4.95344L16.7204 4.36755Z" fill="#DD9D32"/>
</g>
<defs>
<clipPath id="clip0_11_6627">
<rect width="26.232" height="24.8607" fill="white" transform="translate(0.853027 0.931396)"/>
</clipPath>
</defs>
</svg>
