<svg width="75" height="98" viewBox="0 0 75 98" fill="none" xmlns="http://www.w3.org/2000/svg">
<ellipse cx="0.072279" cy="6.89959" rx="6.35744" ry="5.99285" fill="white" fill-opacity="0.2"/>
<ellipse cx="22.7871" cy="6.89959" rx="6.35744" ry="5.99285" fill="white" fill-opacity="0.2"/>
<ellipse cx="45.502" cy="6.89959" rx="6.35744" ry="5.99285" fill="white" fill-opacity="0.2"/>
<ellipse cx="68.2168" cy="6.89959" rx="6.35744" ry="5.99285" fill="white" fill-opacity="0.2"/>
<ellipse cx="0.072279" cy="28.3119" rx="6.35744" ry="5.99285" fill="white" fill-opacity="0.2"/>
<ellipse cx="22.7871" cy="28.3119" rx="6.35744" ry="5.99285" fill="white" fill-opacity="0.2"/>
<ellipse cx="45.502" cy="28.3119" rx="6.35744" ry="5.99285" fill="white" fill-opacity="0.2"/>
<ellipse cx="68.2168" cy="28.3119" rx="6.35744" ry="5.99285" fill="white" fill-opacity="0.2"/>
<ellipse cx="0.072279" cy="49.7241" rx="6.35744" ry="5.99285" fill="white" fill-opacity="0.2"/>
<ellipse cx="22.7871" cy="49.7241" rx="6.35744" ry="5.99285" fill="white" fill-opacity="0.2"/>
<ellipse cx="45.502" cy="49.7241" rx="6.35744" ry="5.99285" fill="white" fill-opacity="0.2"/>
<ellipse cx="68.2168" cy="49.7241" rx="6.35744" ry="5.99285" fill="white" fill-opacity="0.2"/>
<ellipse cx="0.072279" cy="71.1362" rx="6.35744" ry="5.99285" fill="white" fill-opacity="0.2"/>
<ellipse cx="22.7871" cy="71.1362" rx="6.35744" ry="5.99285" fill="white" fill-opacity="0.2"/>
<ellipse cx="45.502" cy="71.1362" rx="6.35744" ry="5.99285" fill="white" fill-opacity="0.2"/>
<ellipse cx="68.2168" cy="71.1362" rx="6.35744" ry="5.99285" fill="white" fill-opacity="0.2"/>
<ellipse cx="0.072279" cy="92.5485" rx="6.35744" ry="5.99285" fill="white" fill-opacity="0.2"/>
<ellipse cx="22.7871" cy="92.5485" rx="6.35744" ry="5.99285" fill="white" fill-opacity="0.2"/>
<ellipse cx="45.502" cy="92.5485" rx="6.35744" ry="5.99285" fill="white" fill-opacity="0.2"/>
<ellipse cx="68.2168" cy="92.5485" rx="6.35744" ry="5.99285" fill="white" fill-opacity="0.2"/>
</svg>
