<svg width="27" height="26" viewBox="0 0 27 26" fill="none" xmlns="http://www.w3.org/2000/svg">
<path d="M3.87107 17.5053C3.87146 17.1758 4.00671 16.8598 4.24716 16.6268C4.4876 16.3937 4.8136 16.2626 5.15365 16.2623H5.48024C5.7186 16.2615 5.95241 16.3255 6.15517 16.4469C6.35793 16.5684 6.52152 16.7424 6.62738 16.9494L7.02235 17.715C7.33131 17.4595 7.5679 17.1319 7.70971 16.7631C8.00194 16.0074 8.52526 15.3561 9.20969 14.8964C9.89413 14.4367 10.7071 14.1904 11.5398 14.1906H15.0134C15.8456 14.1931 16.6573 14.4404 17.3412 14.8998C18.0252 15.3592 18.5491 16.0091 18.8436 16.7633C18.9863 17.1316 19.2227 17.4589 19.5309 17.7148L19.9258 16.9494C20.0317 16.7425 20.1953 16.5684 20.398 16.4469C20.6008 16.3255 20.8346 16.2615 21.073 16.2623H21.3996C21.7397 16.2623 22.0659 16.3932 22.3065 16.6264C22.547 16.8595 22.6821 17.1756 22.6821 17.5053C22.6821 17.835 22.547 18.1512 22.3065 18.3843C22.0659 18.6174 21.7397 18.7483 21.3996 18.7483H20.9916C21.1208 18.8877 21.2369 19.0379 21.3385 19.1973C21.3765 19.2563 21.4138 19.3194 21.4481 19.383C21.6967 19.839 21.8268 20.3468 21.8271 20.8626V25.3779C21.8271 25.4878 21.782 25.5931 21.7019 25.6709C21.6217 25.7486 21.5129 25.7922 21.3996 25.7922H18.8344C18.721 25.7922 18.6123 25.7486 18.5321 25.6709C18.4519 25.5931 18.4069 25.4878 18.4069 25.3779V24.1348H8.14631V25.3779C8.14631 25.4878 8.10127 25.5931 8.02109 25.6709C7.94092 25.7486 7.83218 25.7922 7.71879 25.7922H5.15365C5.04026 25.7922 4.93152 25.7486 4.85134 25.6709C4.77117 25.5931 4.72612 25.4878 4.72612 25.3779V20.8626C4.72667 20.0823 5.02389 19.3296 5.56099 18.7483H5.15365C4.8136 18.748 4.4876 18.6169 4.24716 18.3839C4.00671 18.1508 3.87146 17.8349 3.87107 17.5053ZM5.86262 17.32C5.82733 17.251 5.77279 17.193 5.70521 17.1525C5.63762 17.112 5.55969 17.0907 5.48024 17.091H5.15365C5.04026 17.091 4.93152 17.1346 4.85134 17.2123C4.77116 17.29 4.72612 17.3954 4.72612 17.5053C4.72612 17.6152 4.77116 17.7206 4.85134 17.7983C4.93152 17.876 5.04026 17.9197 5.15365 17.9197H6.17199L5.86262 17.32ZM9.12073 23.3061L9.87833 21.1034C9.90671 21.0209 9.96115 20.9491 10.0339 20.8983C10.1067 20.8474 10.1942 20.8201 10.2839 20.8201H16.2693C16.359 20.8201 16.4465 20.8474 16.5193 20.8983C16.592 20.9491 16.6465 21.0209 16.6749 21.1034L17.4325 23.3061H20.972V21.3162C20.5822 21.5347 20.1398 21.6494 19.6895 21.6488H18.4069C18.2935 21.6488 18.1848 21.6051 18.1046 21.5274C18.0244 21.4497 17.9794 21.3443 17.9794 21.2344C17.9778 20.7682 18.0757 20.3066 18.267 19.8788C18.4583 19.451 18.7387 19.0661 19.0908 18.7483H7.46247C7.81451 19.0661 8.09496 19.451 8.28621 19.8788C8.47746 20.3066 8.57539 20.7682 8.57384 21.2344C8.57384 21.3443 8.52879 21.4497 8.44862 21.5274C8.36844 21.6051 8.2597 21.6488 8.14631 21.6488H6.86374C6.41345 21.6494 5.97098 21.5347 5.58117 21.3162V23.3061H9.12073ZM20.0825 19.0509C19.7612 19.2443 19.4865 19.5024 19.277 19.8076C19.0676 20.1128 18.9282 20.4581 18.8684 20.8201H19.6895C19.9161 20.8206 20.1405 20.7772 20.3496 20.6924C20.5586 20.6077 20.7481 20.4832 20.9068 20.3265C20.8599 20.1326 20.7876 19.9453 20.6916 19.7693C20.6662 19.7221 20.6396 19.6771 20.612 19.6342C20.4704 19.4124 20.2914 19.2153 20.0825 19.0509ZM17.1243 17.9197C17.1243 17.6999 17.0342 17.4891 16.8739 17.3337C16.7135 17.1783 16.496 17.091 16.2693 17.091C16.0425 17.091 15.825 17.1783 15.6647 17.3337C15.5043 17.4891 15.4142 17.6999 15.4142 17.9197H17.1243ZM11.5665 17.9197C11.5665 17.6999 11.4764 17.4891 11.3161 17.3337C11.1557 17.1783 10.9382 17.091 10.7115 17.091C10.4847 17.091 10.2672 17.1783 10.1068 17.3337C9.94649 17.4891 9.85641 17.6999 9.85641 17.9197H11.5665ZM6.86374 20.8201H7.68482C7.62499 20.4579 7.48555 20.1125 7.27594 19.8072C7.06633 19.5018 6.79144 19.2437 6.46992 19.0503C6.05739 19.3758 5.76777 19.8245 5.64638 20.3264C5.80509 20.4832 5.99454 20.6076 6.20361 20.6924C6.41267 20.7772 6.63712 20.8206 6.86374 20.8201ZM15.0134 15.0192H13.7041V15.4336H14.1316V16.2623H12.4216V15.4336H12.8491V15.0192H11.5398C10.8811 15.0191 10.2382 15.2139 9.69681 15.5775C9.15545 15.9411 8.74153 16.4562 8.51038 17.0539C8.38966 17.3668 8.21817 17.6591 8.00238 17.9197H9.00136C9.00136 17.4801 9.18153 17.0585 9.50224 16.7477C9.82294 16.4369 10.2579 16.2623 10.7115 16.2623C11.165 16.2623 11.6 16.4369 11.9207 16.7477C12.2414 17.0585 12.4216 17.4801 12.4216 17.9197H14.5592C14.5592 17.4801 14.7393 17.0585 15.06 16.7477C15.3808 16.4369 15.8157 16.2623 16.2693 16.2623C16.7228 16.2623 17.1578 16.4369 17.4785 16.7477C17.7992 17.0585 17.9794 17.4801 17.9794 17.9197H18.5514C18.3357 17.659 18.1641 17.3669 18.0429 17.0541C17.8099 16.4575 17.3955 15.9435 16.8546 15.5802C16.3136 15.2168 15.6716 15.0212 15.0134 15.0192ZM21.8271 17.5053C21.827 17.3955 21.7819 17.2901 21.7017 17.2125C21.6216 17.1348 21.5129 17.0911 21.3996 17.091H21.073C20.9935 17.0907 20.9156 17.112 20.848 17.1525C20.7804 17.193 20.7259 17.251 20.6906 17.32L20.3812 17.9197H21.3996C21.5129 17.9195 21.6216 17.8758 21.7017 17.7982C21.7819 17.7205 21.827 17.6152 21.8271 17.5053ZM19.2619 24.9635H20.972V24.1348H19.2619V24.9635ZM16.5311 23.3061L15.9612 21.6488H10.5921L10.0221 23.3061H16.5311ZM7.29127 24.9635V24.1348H5.58117V24.9635H7.29127Z" fill="#DD9D32"/>
<path d="M0.878624 0.931396H25.675C25.7884 0.931398 25.8971 0.975052 25.9773 1.05276C26.0575 1.13046 26.1025 1.23585 26.1025 1.34574V25.3778C26.1025 25.4876 26.0575 25.593 25.9773 25.6707C25.8971 25.7484 25.7884 25.7921 25.675 25.7921H23.9649C23.8515 25.7921 23.7428 25.7484 23.6626 25.6707C23.5824 25.593 23.5374 25.4876 23.5374 25.3778V12.9474H3.01624V25.3778C3.01624 25.4876 2.9712 25.593 2.89102 25.6707C2.81085 25.7484 2.70211 25.7921 2.58872 25.7921H0.878624C0.765238 25.7921 0.656498 25.7484 0.576321 25.6707C0.496145 25.593 0.451101 25.4876 0.451101 25.3778V1.34574C0.451101 1.23585 0.496145 1.13046 0.576321 1.05276C0.656498 0.975052 0.765238 0.931398 0.878624 0.931396ZM25.2475 1.76009H1.30615V3.83181H25.2475V1.76009ZM25.2475 24.9634V4.6605H24.3924V24.9634H25.2475ZM23.5374 12.1187V4.6605H3.01624V5.48919H22.6823V6.31788H3.01624V7.14657H22.6823V7.97526H3.01624V8.80395H22.6823V9.63264H3.01624V10.4613H22.6823V11.29H3.01624V12.1187H23.5374ZM2.1612 24.9634V4.6605H1.30615V24.9634H2.1612Z" fill="#DD9D32"/>
</svg>
