<svg width="25" height="25" viewBox="0 0 25 25" fill="none" xmlns="http://www.w3.org/2000/svg">
<g clip-path="url(#clip0_11_6685)">
<path d="M17.4094 3.25012C17.2085 3.25012 17.0459 3.40871 17.0459 3.60418V5.23283C17.0459 5.42829 17.2085 5.58688 17.4094 5.58688C17.6101 5.58688 17.7729 5.42829 17.7729 5.23283V3.60418C17.7729 3.40871 17.6101 3.25012 17.4094 3.25012Z" fill="#DD9D32"/>
<path d="M20.3403 3.25012C20.1394 3.25012 19.9768 3.40871 19.9768 3.60418V5.23283C19.9768 5.42829 20.1394 5.58688 20.3403 5.58688C20.5412 5.58688 20.7038 5.42829 20.7038 5.23283V3.60418C20.7038 3.40871 20.5412 3.25012 20.3403 3.25012Z" fill="#DD9D32"/>
<path d="M16.9245 14.9508H18.9116C19.1123 14.9508 19.2751 14.7922 19.2751 14.5967C19.2751 14.4013 19.1123 14.2427 18.9116 14.2427H16.9245C16.7237 14.2427 16.561 14.4013 16.561 14.5967C16.561 14.7922 16.7237 14.9508 16.9245 14.9508Z" fill="#DD9D32"/>
<path d="M18.9116 19.8289H16.9245C16.7237 19.8289 16.561 19.9874 16.561 20.1829C16.561 20.3786 16.7237 20.537 16.9245 20.537H18.9116C19.1123 20.537 19.2751 20.3786 19.2751 20.1829C19.2751 19.9874 19.1123 19.8289 18.9116 19.8289Z" fill="#DD9D32"/>
<path d="M24.1286 11.377H21.6897C21.4888 11.377 21.3262 11.5354 21.3262 11.7311C21.3262 11.9266 21.4888 12.0851 21.6897 12.0851H24.1286C24.1423 12.0851 24.1534 12.0958 24.1534 12.1093V12.9644C24.1534 12.9778 24.1423 12.9887 24.1286 12.9887H0.818179C0.804548 12.9887 0.793379 12.9778 0.793379 12.9644V12.1093C0.793379 12.096 0.804548 12.0851 0.818179 12.0851H20.2357C20.4366 12.0851 20.5992 11.9266 20.5992 11.7311C20.5992 11.5354 20.4366 11.377 20.2357 11.377H8.56063V10.7801C8.99264 10.7626 9.33834 10.4148 9.33834 9.98977V9.49834C9.33834 9.30287 9.17571 9.14429 8.97485 9.14429C8.77417 9.14429 8.61136 9.30287 8.61136 9.49834V9.98977C8.61136 10.0355 8.57331 10.0728 8.52636 10.0728H3.0699C3.02295 10.0728 2.98471 10.0355 2.98471 9.98977V9.49834C2.98471 9.30287 2.82209 9.14429 2.62122 9.14429C2.42055 9.14429 2.25774 9.30287 2.25774 9.49834V9.98977C2.25774 10.4148 2.60362 10.7626 3.03563 10.7801V11.377H0.818179C0.403767 11.377 0.0664062 11.7055 0.0664062 12.1093V12.9644C0.0664062 13.3682 0.403767 13.6968 0.818179 13.6968H1.22066V23.3922C1.22066 23.9572 1.69244 24.4167 2.2725 24.4167H22.6743C23.2544 24.4167 23.7261 23.9572 23.7261 23.3922V13.6968H24.1286C24.543 13.6968 24.8804 13.3682 24.8804 12.9644V12.1093C24.8804 11.7055 24.543 11.377 24.1286 11.377ZM3.76261 10.7809H7.83365V11.377H3.76261V10.7809ZM1.94764 23.3922V13.6968H12.1099V23.7086H2.2725C2.09322 23.7086 1.94764 23.5668 1.94764 23.3922ZM22.6743 23.7086H12.8369V19.0849H22.9994V23.3922C22.9994 23.5668 22.8536 23.7086 22.6743 23.7086ZM22.9994 18.3768H12.8369V13.6968H22.9994V18.3768Z" fill="#DD9D32"/>
<path d="M10.7509 17.1115H3.43651C3.06735 17.1115 2.76709 17.4039 2.76709 17.7635V22.3349C2.76709 22.6944 3.06735 22.9869 3.43651 22.9869H10.7509C11.1201 22.9869 11.4204 22.6944 11.4204 22.3349V17.7635C11.4204 17.4039 11.1201 17.1115 10.7509 17.1115ZM10.6934 22.2788H3.49406V17.8197H10.6934V22.2788Z" fill="#DD9D32"/>
<path d="M3.95448 16.5558C4.60933 16.5558 5.14187 16.0369 5.14187 15.3993C5.14187 14.7616 4.60933 14.2427 3.95448 14.2427C3.29983 14.2427 2.76709 14.7616 2.76709 15.3993C2.76709 16.0369 3.29983 16.5558 3.95448 16.5558ZM3.95448 14.9508C4.20835 14.9508 4.4149 15.152 4.4149 15.3993C4.4149 15.6465 4.20835 15.8477 3.95448 15.8477C3.70061 15.8477 3.49406 15.6465 3.49406 15.3993C3.49406 15.152 3.70061 14.9508 3.95448 14.9508Z" fill="#DD9D32"/>
<path d="M7.09388 16.5558C7.74854 16.5558 8.28128 16.0369 8.28128 15.3993C8.28128 14.7616 7.74854 14.2427 7.09388 14.2427C6.43923 14.2427 5.90649 14.7616 5.90649 15.3993C5.90649 16.0369 6.43923 16.5558 7.09388 16.5558ZM7.09388 14.9508C7.34776 14.9508 7.5543 15.152 7.5543 15.3993C7.5543 15.6465 7.34776 15.8477 7.09388 15.8477C6.84001 15.8477 6.63347 15.6465 6.63347 15.3993C6.63347 15.152 6.84001 14.9508 7.09388 14.9508Z" fill="#DD9D32"/>
<path d="M23.8881 0.276733H13.8613C13.3142 0.276733 12.8691 0.710266 12.8691 1.24319V7.53964C12.8691 8.07257 13.3142 8.50629 13.8613 8.50629H23.8881C24.4352 8.50629 24.8803 8.07257 24.8803 7.53964V1.24319C24.8803 0.710266 24.4352 0.276733 23.8881 0.276733ZM13.5961 7.53964V1.24319C13.5961 1.10083 13.715 0.984842 13.8613 0.984842H18.5111V7.79818H13.8613C13.715 7.79818 13.5961 7.68219 13.5961 7.53964ZM24.1533 7.53964C24.1533 7.68219 24.0344 7.79818 23.8881 7.79818H19.2381V0.984842H23.8881C24.0344 0.984842 24.1533 1.10083 24.1533 1.24319V7.53964Z" fill="#DD9D32"/>
<path d="M0.791108 4.74556H11.2412C11.6408 4.74556 11.9661 4.42894 11.9661 4.03948V3.40532C11.9661 3.01604 11.641 2.69942 11.2412 2.69942H10.6891C10.5627 1.91755 9.86617 1.31787 9.02863 1.31787H3.00384C2.1663 1.31787 1.46981 1.91755 1.34334 2.69942H0.791108C0.391462 2.69942 0.0664062 3.01604 0.0664062 3.40532V4.03966C0.0664062 4.42894 0.391462 4.74556 0.791108 4.74556ZM3.20451 3.40753C3.40519 3.40753 3.568 3.24894 3.568 3.05348C3.568 2.85801 3.40519 2.69942 3.20451 2.69942H2.0866C2.20095 2.31107 2.56898 2.02598 3.00384 2.02598H9.02863C9.46349 2.02598 9.83152 2.31107 9.94587 2.69942H4.68156C4.48088 2.69942 4.31807 2.85801 4.31807 3.05348C4.31807 3.24894 4.48088 3.40753 4.68156 3.40753L10.309 3.40569C10.3211 3.40698 10.3336 3.40753 10.3461 3.40753C10.3588 3.40753 10.3713 3.40698 10.3838 3.40569L11.2391 3.4055L11.2412 4.03745L0.79338 4.03966L0.791108 3.40753H3.20451Z" fill="#DD9D32"/>
</g>
<defs>
<clipPath id="clip0_11_6685">
<rect width="24.814" height="24.1701" fill="white" transform="translate(0.0664062 0.276733)"/>
</clipPath>
</defs>
</svg>
