<svg width="18" height="25" viewBox="0 0 18 25" fill="none" xmlns="http://www.w3.org/2000/svg">
<path d="M9.10416 0.75C4.23307 0.75 0.293396 4.40819 0.293396 8.93125C0.293396 15.0672 9.10416 24.125 9.10416 24.125C9.10416 24.125 17.9149 15.0672 17.9149 8.93125C17.9149 4.40819 13.9753 0.75 9.10416 0.75ZM9.10416 11.8531C8.2696 11.8531 7.46923 11.5453 6.87911 10.9973C6.28898 10.4494 5.95746 9.70618 5.95746 8.93125C5.95746 8.15632 6.28898 7.41313 6.87911 6.86517C7.46923 6.31721 8.2696 6.00938 9.10416 6.00938C9.93872 6.00938 10.7391 6.31721 11.3292 6.86517C11.9193 7.41313 12.2509 8.15632 12.2509 8.93125C12.2509 9.70618 11.9193 10.4494 11.3292 10.9973C10.7391 11.5453 9.93872 11.8531 9.10416 11.8531Z" fill="#4D4055"/>
</svg>
