<svg width="75" height="74" viewBox="0 0 75 74" fill="none" xmlns="http://www.w3.org/2000/svg">
<path d="M46.6202 20.0348C46.62 18.2311 46.0849 16.4679 45.0826 14.9683C44.0803 13.4686 42.6559 12.2999 40.9894 11.6098C39.3228 10.9197 37.4891 10.7392 35.7201 11.0913C33.951 11.4433 32.326 12.312 31.0507 13.5876C29.7753 14.8631 28.9068 16.4882 28.555 18.2573C28.2032 20.0264 28.3839 21.8601 29.0742 23.5265C29.7646 25.1929 30.9335 26.6172 32.4333 27.6193C33.9331 28.6214 35.6963 29.1563 37.5001 29.1563C39.9182 29.1533 42.2364 28.1913 43.9462 26.4813C45.656 24.7713 46.6176 22.453 46.6202 20.0348ZM30.54 20.0348C30.5403 18.6583 30.9487 17.3128 31.7136 16.1684C32.4785 15.024 33.5656 14.1321 34.8374 13.6055C36.1092 13.0789 37.5086 12.9412 38.8587 13.2099C40.2087 13.4786 41.4487 14.1416 42.422 15.115C43.3952 16.0885 44.058 17.3286 44.3264 18.6787C44.5949 20.0288 44.457 21.4281 43.9302 22.6998C43.4033 23.9716 42.5113 25.0585 41.3667 25.8232C40.2222 26.5879 38.8766 26.9961 37.5001 26.9961C35.6546 26.994 33.8853 26.2598 32.5805 24.9548C31.2757 23.6497 30.5418 21.8803 30.54 20.0348Z" fill="#C67C00"/>
<path d="M74.1166 71.9082L65.3118 48.8254C65.2337 48.621 65.0954 48.4452 64.9152 48.3211C64.735 48.197 64.5214 48.1305 64.3027 48.1304H47.6386C47.7404 47.9644 47.8417 47.8033 47.9435 47.6367C54.3555 37.0211 57.5821 27.7349 57.5358 20.0398C57.5367 14.7258 55.4266 9.6291 51.6697 5.87092C47.9128 2.11273 42.8168 0.000900574 37.5028 2.87965e-07C32.1889 -0.000899998 27.0922 2.10921 23.334 5.86612C19.5758 9.62303 17.464 14.719 17.4631 20.033C17.4168 27.7349 20.6434 37.0223 27.0554 47.6367C27.1572 47.8052 27.2585 47.9663 27.3603 48.1304H10.6962C10.4775 48.1305 10.2639 48.197 10.0837 48.3211C9.9035 48.4452 9.76522 48.621 9.68713 48.8254L0.883568 71.9082C0.820839 72.0717 0.798874 72.2481 0.819568 72.422C0.840263 72.596 0.902995 72.7622 1.00235 72.9065C1.1017 73.0508 1.23468 73.1686 1.3898 73.25C1.54492 73.3313 1.71751 73.3737 1.89267 73.3734H73.1075C73.2826 73.3737 73.4552 73.3313 73.6103 73.25C73.7654 73.1686 73.8984 73.0508 73.9978 72.9065C74.0971 72.7622 74.1599 72.596 74.1806 72.422C74.2013 72.2481 74.1793 72.0717 74.1166 71.9082ZM19.6238 20.0348C19.6243 17.6873 20.087 15.3628 20.9858 13.1941C21.8845 11.0254 23.2016 9.05501 24.8619 7.39534C26.5221 5.73567 28.493 4.41925 30.662 3.52126C32.831 2.62327 35.1556 2.16129 37.5031 2.1617C39.8507 2.1621 42.1752 2.62489 44.3438 3.52363C46.5125 4.42236 48.483 5.73946 50.1426 7.3997C51.8023 9.05995 53.1187 11.0308 54.0167 13.1998C54.9147 15.3688 55.3767 17.6935 55.3763 20.041C55.4689 35.383 41.1254 54.3054 37.5001 58.843C33.8747 54.3073 19.5307 35.3898 19.6238 20.0348ZM36.6774 61.25C36.7787 61.3692 36.9048 61.4649 37.0469 61.5306C37.1889 61.5963 37.3436 61.6303 37.5001 61.6303C37.6566 61.6303 37.8112 61.5963 37.9532 61.5306C38.0953 61.4649 38.2214 61.3692 38.3228 61.25C41.1905 57.7566 43.849 54.0967 46.2845 50.2894H63.5577L64.9402 53.9153L31.1856 65.9202L19.1542 50.2875H28.7144C31.1502 54.0955 33.8092 57.7561 36.6774 61.25ZM31.148 68.2242H31.1541L51.2911 61.0648L59.1016 71.2133H22.7493L31.148 68.2242ZM11.4412 50.2875H16.4281L29.0446 66.6812L16.304 71.2126H3.46033L11.4412 50.2875ZM61.8302 71.2133L53.4309 60.3001L65.7129 55.9323L71.541 71.2133H61.8302Z" fill="#C67C00"/>
</svg>
