<svg width="79" height="70" viewBox="0 0 79 70" fill="none" xmlns="http://www.w3.org/2000/svg">
<path d="M68.5935 24.8466H31.8708C31.2318 24.8466 30.7136 25.3647 30.7136 26.0038C30.7136 26.6429 31.2318 27.161 31.8708 27.161H68.5935C69.2326 27.161 69.7507 26.6429 69.7507 26.0038C69.7507 25.3647 69.2326 24.8466 68.5935 24.8466Z" fill="#C67C00"/>
<path d="M68.5935 33.6929H31.8708C31.2318 33.6929 30.7136 34.211 30.7136 34.8501C30.7136 35.4892 31.2318 36.0073 31.8708 36.0073H68.5935C69.2326 36.0073 69.7507 35.4892 69.7507 34.8501C69.7507 34.211 69.2326 33.6929 68.5935 33.6929Z" fill="#C67C00"/>
<path d="M68.5935 42.5392H31.8708C31.2318 42.5392 30.7136 43.0573 30.7136 43.6964C30.7136 44.3355 31.2318 44.8536 31.8708 44.8536H68.5935C69.2326 44.8536 69.7507 44.3355 69.7507 43.6964C69.7507 43.0573 69.2326 42.5392 68.5935 42.5392Z" fill="#C67C00"/>
<path d="M72.2694 14.726H28.1951C24.4838 14.726 21.4644 17.7452 21.4644 21.4567V49.171C21.4644 52.8823 24.4836 55.9018 28.1951 55.9018H59.087C59.4174 55.9018 59.7243 56.0504 59.9292 56.3097L69.9052 68.9394C70.2984 69.4372 70.8721 69.7084 71.4727 69.7084C71.696 69.7084 71.9231 69.6709 72.1459 69.5935C72.9679 69.308 73.499 68.5614 73.499 67.6913V55.7868C76.6196 55.2039 79.0001 52.4449 79.0001 49.171V21.4565C79.0001 17.7452 75.9808 14.726 72.2694 14.726ZM76.6857 49.171C76.6857 51.5745 74.7303 53.5549 72.3268 53.5855C71.6935 53.5936 71.1844 54.1093 71.1844 54.7427V66.8249L61.7454 54.8751C61.0991 54.0565 60.1301 53.5872 59.087 53.5872H28.1951C25.76 53.5872 23.7788 51.606 23.7788 49.1709V21.4565C23.7788 19.0214 25.7598 17.0403 28.1951 17.0403H72.2694C74.7045 17.0403 76.6857 19.0214 76.6857 21.4565V49.171Z" fill="#C67C00"/>
<path d="M17.0489 33.8606C16.2573 33.9729 15.5485 34.3804 15.0529 35.0078L7.10336 45.072V34.9854C7.10336 34.352 6.59419 33.8364 5.96095 33.8282C3.95031 33.8026 2.31445 32.1459 2.31445 30.1351V6.00909C2.31445 3.97191 3.97191 2.31445 6.00909 2.31445H44.377C46.4142 2.31445 48.0717 3.97191 48.0717 6.00909V10.4732C48.0717 11.1123 48.5898 11.6304 49.2289 11.6304C49.868 11.6304 50.3861 11.1123 50.3861 10.4732V6.00909C50.3861 2.69572 47.6904 0 44.377 0H6.00909C2.69572 0 0 2.69572 0 6.00909V30.1351C0 33.0154 2.0631 35.4488 4.78907 36.0175V46.2576C4.78907 47.0797 5.29084 47.7853 6.06757 48.055C6.27819 48.1281 6.49266 48.1636 6.70374 48.1636C7.27109 48.1636 7.81344 47.9072 8.18483 47.437L16.8693 36.4425C16.9946 36.2837 17.174 36.1806 17.3743 36.1521C18.0071 36.0623 18.4473 35.4764 18.3573 34.8436C18.2675 34.2109 17.6826 33.7703 17.0489 33.8606Z" fill="#C67C00"/>
</svg>
