<svg width="255" height="167" viewBox="0 0 255 167" fill="none" xmlns="http://www.w3.org/2000/svg">
<g clip-path="url(#clip0_343_6501)">
<path d="M250.559 39.3554L246.537 58.6791L243.981 56.1803L239.581 59.3037L236.229 55.1392L228.687 60.5948L222.277 49.8918L215.07 54.0564L212.221 50.1833L203.129 55.2641L200.405 49.4337L206.774 18.699L241.006 25.7372L250.559 39.3554Z" fill="#EBEBEB"/>
<path d="M241.006 25.7372L250.559 39.3554L238.659 36.9399L241.006 25.7372Z" fill="#DBDBDB"/>
<path d="M245.698 62.5105L239.791 90.8297L193.701 81.3761L199.525 53.3067L202.291 59.1372L211.383 54.0147L214.232 57.9294L221.397 53.7648L227.849 64.4262L235.349 59.0122L238.701 63.1352L243.101 60.0117L245.698 62.5105Z" fill="#EBEBEB"/>
<path d="M179.707 59.2204L132.696 62.094L128.967 2.16559L163.869 0L176.69 10.6613L179.707 59.2204Z" fill="#EBEBEB"/>
<path d="M163.869 0L176.69 10.6613L164.581 11.411L163.869 0Z" fill="#DBDBDB"/>
<path d="M150.838 40.3549L150.671 39.0222C150.21 36.2319 150.964 33.0668 153.436 29.8185C155.657 26.9032 156.83 24.821 156.704 22.4471C156.536 19.7818 154.777 18.116 151.467 18.2409C149.581 18.3658 147.528 19.0738 146.229 20.1566L144.763 16.9499C146.439 15.6172 149.372 14.6177 152.179 14.4511C158.212 14.118 161.145 17.6579 161.397 21.6559C161.606 25.1958 159.763 27.8611 157.374 30.9845C155.196 33.8165 154.483 36.1903 154.819 38.814L154.944 40.1883L150.838 40.3549ZM150.084 47.7262C149.958 45.8105 151.215 44.3529 153.059 44.2696C154.902 44.1863 156.243 45.4357 156.327 47.393C156.411 49.2254 155.321 50.683 153.352 50.808C151.55 50.8913 150.21 49.5586 150.084 47.7262Z" fill="#DBDBDB"/>
<path d="M33.3104 30.1516L28.5758 28.0277L27.9054 29.4853C27.6959 29.9017 27.2769 30.1933 26.816 30.1933C26.5646 30.1933 26.3132 30.2349 26.0618 30.2766C25.6009 30.3598 25.14 30.1516 24.8886 29.7768L23.9668 28.4858L19.735 31.4843L20.6568 32.7753C20.9082 33.1501 20.9501 33.6499 20.7406 34.0663C20.6149 34.3162 20.5311 34.5244 20.4054 34.7743C20.2378 35.1908 19.8607 35.5239 19.3998 35.5656L17.8076 35.7322L18.3104 40.813L19.9026 40.6464C20.3635 40.6047 20.8244 40.813 21.0758 41.2294C21.1596 41.3544 21.2015 41.4377 21.2853 41.5626C21.3691 41.6459 21.4529 41.7708 21.5367 41.8541C21.83 42.2289 21.9138 42.687 21.7043 43.1035L21.0339 44.5611L25.7685 46.685L26.4389 45.2274C26.6484 44.811 27.0674 44.5194 27.5283 44.5194C27.7797 44.5194 28.0311 44.4778 28.2825 44.4362C28.7434 44.3529 29.2043 44.5611 29.4557 44.9359L30.3774 46.2269L34.6093 43.2284L33.6875 41.9374C33.4361 41.5626 33.3942 41.0628 33.6037 40.6464C33.7294 40.4382 33.8132 40.1883 33.9389 39.9384C34.1065 39.5219 34.4836 39.1888 34.9445 39.1471L36.5367 38.9805L36.0339 33.8997L34.4417 34.0663C33.9808 34.108 33.5199 33.8997 33.2685 33.4833C33.1847 33.3584 33.1428 33.2751 33.059 33.1501C32.9752 33.0668 32.8914 32.9419 32.8076 32.8586C32.5143 32.4838 32.4305 32.0257 32.64 31.5676L33.3104 30.1516ZM30.6288 34.8993C32.0115 36.815 31.5506 39.4387 29.6652 40.813C27.7378 42.1873 25.0981 41.7292 23.7154 39.8551C22.3328 37.9394 22.7937 35.3157 24.6791 33.9414C26.6065 32.5671 29.2881 32.9835 30.6288 34.8993Z" fill="#EBEBEB"/>
<path d="M246.955 98.2843L243.813 100.075L244.357 101.033C244.525 101.324 244.525 101.658 244.316 101.949C244.232 102.116 244.106 102.241 244.064 102.407C243.897 102.699 243.603 102.865 243.31 102.865H242.179V106.489H243.31C243.645 106.489 243.938 106.655 244.064 106.947C244.148 107.113 244.232 107.28 244.316 107.405C244.483 107.696 244.525 108.029 244.357 108.321L243.813 109.279L246.955 111.07L247.5 110.112C247.668 109.82 247.961 109.654 248.296 109.695C248.38 109.695 248.464 109.695 248.547 109.695C248.631 109.695 248.715 109.695 248.799 109.695C249.134 109.695 249.427 109.82 249.595 110.112L250.14 111.07L253.282 109.279L252.737 108.321C252.57 108.029 252.57 107.696 252.779 107.405C252.863 107.238 252.989 107.113 253.031 106.947C253.198 106.655 253.492 106.489 253.785 106.489H254.916V102.865H253.785C253.45 102.865 253.156 102.699 253.031 102.407C252.947 102.241 252.863 102.074 252.779 101.949C252.612 101.658 252.57 101.324 252.737 101.033L253.282 100.075L250.14 98.2843L249.595 99.2421C249.427 99.5336 249.134 99.6586 248.799 99.6586C248.715 99.6586 248.631 99.6586 248.547 99.6586C248.464 99.6586 248.38 99.6586 248.296 99.6586C247.961 99.6586 247.668 99.5336 247.5 99.2421L246.955 98.2843ZM248.589 101.741C250.223 101.741 251.564 103.074 251.564 104.698C251.564 106.322 250.223 107.655 248.589 107.655C246.955 107.655 245.614 106.322 245.614 104.698C245.614 103.074 246.955 101.741 248.589 101.741Z" fill="#EBEBEB"/>
<path d="M42.8639 14.7426L39.9728 16.9499L40.6432 17.8244C40.8527 18.0743 40.8527 18.4491 40.727 18.7406C40.6432 18.9072 40.5594 19.0738 40.5175 19.2404C40.3918 19.5319 40.1404 19.7818 39.8052 19.8234L38.7158 19.9484L39.1767 23.5299L40.2661 23.405C40.6013 23.3633 40.8946 23.5299 41.1041 23.7798C41.1879 23.9464 41.3136 24.0713 41.4393 24.1962C41.6488 24.4461 41.7326 24.7793 41.6069 25.0708L41.1879 26.112L44.5398 27.4863L44.9588 26.4451C45.0845 26.1536 45.3778 25.9454 45.713 25.9454C45.7968 25.9454 45.8806 25.9454 45.9644 25.9037C46.0482 25.9037 46.132 25.8621 46.2158 25.8621C46.551 25.8204 46.8443 25.9037 47.0538 26.1952L47.7661 27.0698L50.6572 24.8626L49.9868 23.988C49.7773 23.7381 49.7773 23.3633 49.903 23.0718C49.9868 22.9052 50.0706 22.7386 50.1125 22.5721C50.2382 22.2805 50.4896 22.0307 50.8248 21.989L51.9141 21.8641L51.4533 18.2825L50.3639 18.4075C50.0287 18.4491 49.7354 18.2825 49.5259 18.0327C49.4421 17.8661 49.3164 17.7411 49.1907 17.6162C48.9812 17.3663 48.8974 17.0332 49.0231 16.7416L49.4421 15.7005L46.0901 14.3262L45.6711 15.3673C45.5454 15.6588 45.2521 15.8671 44.9169 15.8671C44.8331 15.8671 44.7493 15.8671 44.6655 15.9087C44.5817 15.9087 44.4979 15.9504 44.4141 15.9504C44.0789 15.992 43.7438 15.9087 43.5762 15.6172L42.8639 14.7426ZM44.9588 17.991C46.5929 17.7828 48.1013 18.9072 48.3108 20.5314C48.5203 22.1556 47.389 23.6549 45.7549 23.8631C44.1208 24.0713 42.6125 22.9469 42.403 21.3227C42.1516 19.6568 43.3248 18.1992 44.9588 17.991Z" fill="#EBEBEB"/>
<path d="M0 135.932L31.8436 135.849L63.6872 135.807L127.374 135.724L191.103 135.807L222.947 135.849L254.79 135.932L222.947 136.057L191.103 136.099L127.374 136.14L63.6872 136.099L31.8436 136.057L0 135.932Z" fill="#263238"/>
<path d="M128.213 167C194.556 167 248.338 161.145 248.338 153.923C248.338 146.701 194.556 140.846 128.213 140.846C61.869 140.846 8.08691 146.701 8.08691 153.923C8.08691 161.145 61.869 167 128.213 167Z" fill="#D1D1D1"/>
<path d="M212.598 156.713H84.9307L103.366 52.682H231.034L212.598 156.713Z" fill="#DBDBDB"/>
<path d="M147.067 41.8958H105.294L103.366 52.682H148.073L147.067 41.8958Z" fill="#DBDBDB"/>
<g opacity="0.1">
<path d="M212.598 156.713H84.9307L103.366 52.682H231.034L212.598 156.713Z" fill="#DBDBDB"/>
<path d="M147.067 41.8958H105.294L103.366 52.682H148.073L147.067 41.8958Z" fill="#DBDBDB"/>
</g>
<path d="M100.769 46.2686C100.601 45.6439 100.56 45.0608 100.56 44.4361C100.56 43.8115 100.601 43.2284 100.769 42.6037C100.937 43.2284 100.979 43.8115 100.979 44.4361C100.979 45.0608 100.937 45.6855 100.769 46.2686Z" fill="#263238"/>
<path d="M97.082 47.3513C96.6211 46.8932 96.2859 46.3935 95.9926 45.8937C95.6993 45.3523 95.406 44.8109 95.2803 44.2279C95.7412 44.686 96.0764 45.1858 96.3697 45.6855C96.6211 46.2269 96.9144 46.7683 97.082 47.3513Z" fill="#263238"/>
<path d="M94.4003 50.1416C93.7718 49.9751 93.2271 49.7252 92.7243 49.4337C92.2215 49.1421 91.6768 48.809 91.2578 48.3509C91.8863 48.5174 92.431 48.7673 92.9338 49.0588C93.4366 49.3504 93.9394 49.6835 94.4003 50.1416Z" fill="#263238"/>
<path d="M93.4782 53.8481C92.8497 54.0147 92.2631 54.0564 91.6346 54.0564C91.0061 54.0564 90.4195 54.0147 89.791 53.8481C90.4195 53.6815 91.0061 53.6399 91.6346 53.6399C92.2631 53.6399 92.8497 53.6815 93.4782 53.8481Z" fill="#263238"/>
<path d="M94.5253 57.5546C94.0644 58.0127 93.5616 58.3459 93.0588 58.6374C92.5141 58.9289 91.9694 59.2204 91.3828 59.3454C91.8437 58.8873 92.3465 58.5541 92.8493 58.2626C93.394 57.9711 93.9387 57.7212 94.5253 57.5546Z" fill="#263238"/>
<path d="M97.3329 60.2199C97.1653 60.8446 96.9139 61.386 96.6206 61.8858C96.3273 62.3855 95.9921 62.9269 95.5312 63.3434C95.6988 62.7187 95.9502 62.1773 96.2435 61.6775C96.5368 61.1361 96.872 60.6364 97.3329 60.2199Z" fill="#263238"/>
<path d="M101.062 61.1361C101.23 61.7608 101.272 62.3439 101.272 62.9686C101.272 63.5932 101.23 64.1763 101.062 64.801C100.894 64.1763 100.853 63.5932 100.853 62.9686C100.894 62.3439 100.894 61.7192 101.062 61.1361Z" fill="#263238"/>
<path d="M104.791 60.0533C105.252 60.5114 105.587 61.0112 105.88 61.511C106.174 62.0523 106.467 62.5937 106.593 63.1768C106.132 62.7187 105.797 62.2189 105.503 61.7192C105.21 61.2194 104.959 60.678 104.791 60.0533Z" fill="#263238"/>
<path d="M107.473 57.3047C108.101 57.4713 108.646 57.7212 109.149 58.0127C109.651 58.3042 110.196 58.6374 110.615 59.0955C109.987 58.9289 109.442 58.679 108.939 58.3875C108.436 58.0543 107.892 57.7212 107.473 57.3047Z" fill="#263238"/>
<path d="M108.395 53.5566C109.023 53.39 109.61 53.3484 110.238 53.3484C110.867 53.3484 111.453 53.39 112.082 53.5566C111.453 53.7232 110.867 53.7648 110.238 53.7648C109.61 53.7648 108.981 53.7232 108.395 53.5566Z" fill="#263238"/>
<path d="M107.305 49.8918C107.766 49.4337 108.268 49.1005 108.771 48.809C109.316 48.5174 109.861 48.2259 110.447 48.101C109.986 48.5591 109.483 48.8923 108.981 49.1838C108.478 49.4337 107.933 49.7252 107.305 49.8918Z" fill="#263238"/>
<path d="M104.54 47.2264C104.708 46.6017 104.959 46.0603 105.252 45.5606C105.546 45.0608 105.881 44.5194 106.342 44.103C106.174 44.7277 105.923 45.2691 105.629 45.7688C105.336 46.2686 105.001 46.7683 104.54 47.2264Z" fill="#263238"/>
<path d="M212.389 156.713H84.4695L66.2852 56.4302H194.246L212.389 156.713Z" fill="#EBEBEB"/>
<path d="M203.883 111.861C204.176 111.819 204.428 111.736 204.679 111.653" stroke="#263238" stroke-miterlimit="10"/>
<path d="M206.313 111.195C212.724 109.029 218.087 104.031 218.589 98.1593C219.721 85.2491 203.883 78.1277 205.517 63.2184C207.067 48.9755 222.109 47.976 228.101 49.9334C234.763 52.099 232.458 58.4708 226.467 57.6379C216.034 56.2219 209.455 44.9359 214.441 32.1506C218.129 22.5721 227.388 18.9905 231.117 17.9077" stroke="#263238" stroke-miterlimit="10" stroke-dasharray="4 4"/>
<path d="M231.955 17.6578C232.458 17.5329 232.751 17.4496 232.751 17.4496" stroke="#263238" stroke-miterlimit="10"/>
<path d="M239.413 15.1591C238.324 11.8691 231.201 13.0351 232.584 17.3663C233.966 21.6558 240.461 18.4491 239.413 15.1591Z" fill="#263238"/>
<path d="M228.687 13.8264C228.729 12.3688 230.74 11.286 233.631 11.7858C236.48 12.2855 239.162 14.2012 239.162 14.2012C239.162 14.2012 236.355 15.9087 233.464 16.2419C230.573 16.5334 228.603 15.284 228.687 13.8264Z" fill="#EBEBEB"/>
<path d="M239.162 14.2429C237.696 14.2429 236.187 14.2012 234.721 14.1596C233.254 14.0763 231.746 14.0347 230.279 13.9097C231.746 13.9097 233.254 13.9514 234.721 13.993C236.187 14.0347 237.654 14.118 239.162 14.2429Z" fill="#263238"/>
<path d="M231.536 12.5771C231.955 12.7853 232.374 12.9935 232.751 13.2434C233.128 13.4933 233.547 13.7431 233.883 14.0347C233.464 13.8264 233.045 13.6182 232.667 13.3683C232.29 13.1185 231.913 12.8686 231.536 12.5771Z" fill="#263238"/>
<path d="M235.433 14.0763C235.056 14.4095 234.637 14.6593 234.26 14.9092C233.841 15.1591 233.422 15.409 233.003 15.6172C233.38 15.284 233.799 15.0341 234.176 14.7843C234.553 14.576 234.972 14.2845 235.433 14.0763Z" fill="#263238"/>
<path d="M235.852 13.285C236.061 13.3683 236.271 13.5349 236.438 13.6598C236.606 13.8264 236.773 13.9514 236.941 14.1596C236.731 14.0763 236.522 13.9097 236.354 13.7848C236.187 13.6182 235.977 13.4933 235.852 13.285Z" fill="#263238"/>
<path d="M231.411 22.4055C232.29 23.5299 234.595 23.28 236.606 21.1977C238.617 19.1154 239.665 15.992 239.665 15.992C239.665 15.992 236.355 16.2419 233.841 17.6578C231.327 19.1154 230.489 21.281 231.411 22.4055Z" fill="#EBEBEB"/>
<path d="M239.665 15.992C238.45 16.8666 237.277 17.7411 236.104 18.6573C234.93 19.5735 233.757 20.4898 232.626 21.4476C233.841 20.6147 235.014 19.6985 236.187 18.7823C237.361 17.8661 238.534 16.9499 239.665 15.992Z" fill="#263238"/>
<path d="M234.47 21.7808C234.721 21.3643 234.889 20.9479 235.056 20.5314C235.224 20.1149 235.392 19.6568 235.517 19.1987C235.266 19.6152 235.098 20.0316 234.931 20.4481C234.763 20.9062 234.595 21.3227 234.47 21.7808Z" fill="#263238"/>
<path d="M236.732 18.2825C236.229 18.2409 235.768 18.2825 235.265 18.2825C234.763 18.3242 234.302 18.3658 233.799 18.4491C234.302 18.4907 234.763 18.4491 235.265 18.4491C235.768 18.4075 236.229 18.3658 236.732 18.2825Z" fill="#263238"/>
<path d="M237.57 18.699C237.696 18.4908 237.78 18.2825 237.822 18.0327C237.864 17.8244 237.947 17.5746 237.947 17.3247C237.822 17.5329 237.738 17.7411 237.696 17.991C237.612 18.2409 237.57 18.4491 237.57 18.699Z" fill="#263238"/>
<path d="M239.413 15.1591C238.743 15.3673 238.03 14.9925 237.821 14.3678C237.611 13.7015 237.988 12.9935 238.617 12.7853C239.287 12.5771 240 12.9519 240.209 13.5766C240.419 14.2429 240.042 14.9509 239.413 15.1591Z" fill="#455A64"/>
<path d="M240.168 17.5329C239.498 17.7411 238.785 17.3663 238.576 16.7416C238.366 16.0753 238.743 15.3673 239.372 15.1591C240.042 14.9509 240.755 15.3257 240.964 15.9504C241.174 16.6167 240.838 17.3247 240.168 17.5329Z" fill="#455A64"/>
<path d="M102.779 16.4918C102.192 22.1973 97.0386 26.3202 91.2984 25.7372C88.9939 25.4873 86.9408 24.5295 85.3068 23.0718L80.0693 23.8215L82.6671 19.3237C82.0386 17.7828 81.7453 16.0753 81.9548 14.3262C82.5414 8.62072 87.695 4.49778 93.4353 5.08082C99.2174 5.66386 103.407 10.7863 102.779 16.4918Z" fill="white"/>
<path d="M102.779 16.4918C102.57 18.4075 101.857 20.2399 100.684 21.7392C100.391 22.114 100.056 22.4471 99.7205 22.822C99.3434 23.1551 99.0082 23.4883 98.6311 23.7382C97.8769 24.3212 96.997 24.7793 96.1171 25.1125C95.2373 25.4873 94.2736 25.6539 93.3099 25.7788C92.8071 25.8205 92.3462 25.8621 91.8434 25.8205C91.3406 25.8205 90.8797 25.7372 90.4188 25.6539C88.4915 25.3207 86.6898 24.4045 85.2652 23.1135L85.3909 23.1551L80.1535 23.9464L79.7764 23.988L79.9859 23.6549L82.5836 19.1571V19.3237C81.3267 16.3668 81.6199 12.8269 83.2121 10.0783C84.0082 8.704 85.1395 7.49627 86.4803 6.62171C87.8211 5.74714 89.3713 5.1641 90.9216 4.95587C92.5138 4.74764 94.1479 4.87258 95.6563 5.37233C97.1646 5.87208 98.5473 6.74664 99.6786 7.82944C101.983 10.0783 103.156 13.3683 102.779 16.4918ZM102.779 16.4918C103.114 13.3683 101.899 10.12 99.5948 7.95437C98.4635 6.87158 97.0808 6.08031 95.5725 5.58056C94.0641 5.12245 92.4719 4.99752 90.9216 5.24739C89.3713 5.49727 87.9049 6.03866 86.606 6.95487C85.349 7.82944 84.2596 8.99552 83.4635 10.3282C82.6674 11.6609 82.2484 13.2018 82.1227 14.701C82.0389 16.2419 82.2903 17.7828 82.8769 19.2404L82.9188 19.3237L82.8769 19.407L80.2373 23.9047L80.0697 23.6132L85.3071 22.9052H85.3909L85.4328 22.9469C86.8155 24.2379 88.5753 25.1541 90.4188 25.4873C90.8797 25.5706 91.3406 25.6539 91.8434 25.6539C92.3043 25.6955 92.8071 25.6539 93.268 25.6539C94.2317 25.5706 95.1535 25.404 96.0753 25.0292C96.9551 24.696 97.835 24.2796 98.5892 23.6965C99.0082 23.4466 99.3434 23.0718 99.6786 22.7803C100.014 22.4471 100.349 22.114 100.642 21.6975C101.857 20.2399 102.57 18.3658 102.779 16.4918Z" fill="#263238"/>
<path d="M87.3184 20.2399C87.3184 19.6152 87.7374 19.1571 88.3239 19.1571C88.9524 19.1571 89.3295 19.6152 89.3295 20.2399C89.3295 20.823 88.9105 21.3227 88.3239 21.3227C87.7374 21.3227 87.3184 20.8646 87.3184 20.2399ZM87.7374 17.7828L87.486 9.53693H89.1619L88.9105 17.7828H87.7374Z" fill="#828282"/>
<path d="M91.2988 20.2399C91.2988 19.6152 91.7178 19.1571 92.3044 19.1571C92.9329 19.1571 93.31 19.6152 93.31 20.2399C93.31 20.823 92.891 21.3227 92.3044 21.3227C91.7178 21.3227 91.2988 20.8646 91.2988 20.2399ZM91.7178 17.7828L91.4664 9.53693H93.1424L92.891 17.7828H91.7178Z" fill="#828282"/>
<path d="M95.2793 20.2399C95.2793 19.6152 95.6983 19.1571 96.2849 19.1571C96.9134 19.1571 97.2905 19.6152 97.2905 20.2399C97.2905 20.823 96.8715 21.3227 96.2849 21.3227C95.6983 21.3227 95.2793 20.8646 95.2793 20.2399ZM95.6983 17.7828L95.4469 9.53693H97.1229L96.8715 17.7828H95.6983Z" fill="#828282"/>
</g>
<defs>
<clipPath id="clip0_343_6501">
<rect width="255" height="167" fill="white"/>
</clipPath>
</defs>
</svg>
