<svg width="80" height="75" viewBox="0 0 80 75" fill="none" xmlns="http://www.w3.org/2000/svg">
<path d="M74.4456 0H45.6767C45.0294 0 44.5049 0.524505 44.5049 1.17182C44.5049 1.81913 45.0294 2.34363 45.6767 2.34363H74.4456C76.216 2.34363 77.6564 3.78403 77.6564 5.55441V35.7296C77.6564 37.5 76.216 38.9404 74.4456 38.9404H69.8505C69.6036 38.9404 69.363 39.0183 69.1632 39.1632L61.1728 44.9505V40.1122C61.1728 39.4649 60.6483 38.9404 60.001 38.9404H34.5664C32.7958 38.9404 31.3556 37.5 31.3556 35.7296V5.55441C31.3556 3.78403 32.796 2.34363 34.5664 2.34363H40.5707C41.2181 2.34363 41.7426 1.81913 41.7426 1.17182C41.7426 0.524505 41.2181 0 40.5707 0H34.5664C31.5036 0 29.012 2.49159 29.012 5.55441V35.7296C29.012 38.7924 31.5037 41.284 34.5664 41.284H58.8292V47.2462C58.8292 47.6865 59.0761 48.0896 59.4682 48.2899C59.8838 48.488 60.2905 48.4564 60.6885 48.1954L70.2303 41.2842H74.4456C77.5084 41.2842 80 38.7926 80 35.7298V5.55441C80 2.49175 77.5082 0 74.4456 0Z" fill="#C67C00"/>
<path d="M68.0583 61.9383C67.8139 60.1918 66.786 58.707 65.235 57.8619L60.024 55.0228C59.4557 54.7127 58.744 54.9227 58.4344 55.4914C58.125 56.0597 58.3347 56.7713 58.9031 57.0809L64.1134 59.9198C65.005 60.4054 65.5957 61.2581 65.737 62.2611C65.7377 62.2675 65.7385 62.2739 65.7395 62.2801C65.8762 63.2932 65.5313 64.2814 64.7939 64.9905L64.0258 65.7279L44.7883 54.9033L47.0492 52.9147C48.0136 52.0661 49.4176 51.9094 50.544 52.5247L53.7954 54.2966C54.3636 54.6061 55.0753 54.3968 55.3851 53.8284C55.6947 53.2601 55.4853 52.5484 54.9169 52.2386L51.6663 50.4671C49.6798 49.3825 47.202 49.6586 45.5014 51.1548L40.2328 55.7891C39.1536 56.7382 37.5785 56.8263 36.4028 56.0028C28.467 50.4432 22.704 44.327 18.7845 37.3053C18.1236 36.1197 18.3083 34.6576 19.2437 33.6672L23.4141 29.2563C24.9692 27.6099 25.3337 25.1433 24.3212 23.1184L17.3032 9.08221C16.5213 7.5165 15.0855 6.43797 13.3638 6.12298C11.6411 5.80737 9.91541 6.30844 8.6286 7.49666L5.96311 9.95919C3.0167 12.6809 1.0668 16.2008 0.324337 20.1377C-0.419531 24.0813 0.121848 28.0594 1.88973 31.6432C1.89754 31.6598 1.90488 31.6742 1.91098 31.6861C3.03123 33.9516 4.24258 36.1669 5.50907 38.267C5.72047 38.6204 5.94843 38.9938 6.18623 39.3771C6.52762 39.9267 7.24992 40.0958 7.7999 39.7546C8.34971 39.4132 8.51877 38.6907 8.17753 38.1409C7.94645 37.7686 7.72521 37.4061 7.51819 37.0602C6.2845 35.0145 5.10613 32.8596 4.01571 30.6552C4.00962 30.6424 4.00337 30.6299 3.99696 30.6174C0.916495 24.3844 2.29283 16.7365 7.32648 11.8991L17.8942 31.6834L17.5403 32.0578C15.8984 33.7958 15.5758 36.3635 16.7377 38.4473C20.8336 45.7852 26.8261 52.1555 35.0582 57.9225C36.0032 58.5842 37.0945 58.9108 38.1821 58.9108C39.4706 58.9108 40.7537 58.452 41.7807 57.5488L42.9239 56.5432L62.2601 67.4233L62.2406 67.4421C57.2564 72.2306 49.7901 73.3204 43.662 70.1536C30.3789 63.2877 19.5807 54.2116 11.5672 43.1781C11.1868 42.6544 10.454 42.538 9.93041 42.9186C9.40669 43.2991 9.2906 44.0317 9.67089 44.5554C17.9011 55.8873 28.9752 65.2005 42.5856 72.236C45.2647 73.6203 48.1658 74.2947 51.0479 74.2947C55.7172 74.2947 60.3347 72.5234 63.8638 69.1328L66.4174 66.6807C67.6911 65.4559 68.291 63.7537 68.0668 62.0047C68.0647 61.9823 68.0617 61.9605 68.0583 61.9383ZM9.10233 10.2496L10.2188 9.21829C10.9588 8.53505 11.9509 8.24741 12.942 8.42833C13.9316 8.60942 14.757 9.22939 15.2067 10.13L22.2251 24.1668C22.7991 25.3148 22.5923 26.7135 21.7108 27.6467L19.592 29.8877L9.10233 10.2496Z" fill="#C67C00"/>
<path d="M70.5538 21.7527C70.5538 19.4956 68.7175 17.6593 66.4604 17.6593C64.2035 17.6593 62.3672 19.4956 62.3672 21.7527C62.3672 24.0096 64.2035 25.8459 66.4604 25.8459C68.7175 25.8459 70.5538 24.0096 70.5538 21.7527ZM64.7107 21.7527C64.7107 20.7879 65.4955 20.0029 66.4603 20.0029C67.4251 20.0029 68.21 20.7879 68.21 21.7527C68.21 22.7175 67.4251 23.5023 66.4603 23.5023C65.4955 23.5023 64.7107 22.7175 64.7107 21.7527Z" fill="#C67C00"/>
<path d="M58.5995 21.7527C58.5995 19.4956 56.7631 17.6593 54.5062 17.6593C52.2492 17.6593 50.4128 19.4956 50.4128 21.7527C50.4128 24.0096 52.2492 25.8459 54.5062 25.8459C56.7631 25.8459 58.5995 24.0096 58.5995 21.7527ZM52.7563 21.7527C52.7563 20.7879 53.5413 20.0029 54.5061 20.0029C55.4709 20.0029 56.2557 20.7879 56.2557 21.7527C56.2557 22.7175 55.4709 23.5023 54.5061 23.5023C53.5413 23.5023 52.7563 22.7175 52.7563 21.7527Z" fill="#C67C00"/>
<path d="M38.4585 21.7527C38.4585 24.0096 40.2947 25.8459 42.5519 25.8459C44.8091 25.8459 46.6453 24.0096 46.6453 21.7527C46.6453 19.4956 44.809 17.6593 42.5519 17.6593C40.2948 17.6593 38.4585 19.4956 38.4585 21.7527ZM42.5519 20.0029C43.5167 20.0029 44.3016 20.7879 44.3016 21.7527C44.3016 22.7175 43.5167 23.5023 42.5519 23.5023C41.5871 23.5023 40.8023 22.7175 40.8023 21.7527C40.8023 20.7879 41.5871 20.0029 42.5519 20.0029Z" fill="#C67C00"/>
</svg>
