<svg width="27" height="26" viewBox="0 0 27 26" fill="none" xmlns="http://www.w3.org/2000/svg">
<g clip-path="url(#clip0_11_6702)">
<path d="M25.0419 18.4116H24.6431V15.6924C24.6431 15.05 24.1063 14.5271 23.4467 14.5271H16.2684C15.9609 14.5271 15.6829 14.644 15.4708 14.8301C15.2586 14.6436 14.9806 14.5271 14.6732 14.5271H7.49483C6.83522 14.5271 6.29844 15.05 6.29844 15.6924V18.4116H5.89964C5.24003 18.4116 4.70325 18.9344 4.70325 19.5769V23.073C4.70325 23.7155 5.24003 24.2383 5.89964 24.2383H8.29242L7.69423 25.0152L6.94289 25.0168L6.94369 25.0152C7.04219 24.8233 6.96243 24.5899 6.76543 24.4939C6.56802 24.3972 6.32874 24.476 6.23024 24.6675C6.10582 24.9103 6.11898 25.1927 6.26494 25.4235C6.41169 25.6546 6.66533 25.7921 6.94369 25.7921H7.69423C7.94387 25.7921 8.18275 25.676 8.3323 25.4813L9.28941 24.2383H21.6549L22.6124 25.4817C22.7624 25.676 23.0009 25.7921 23.2501 25.7921H24.0006C24.279 25.7921 24.5326 25.6546 24.679 25.4239C24.8254 25.1931 24.8381 24.9103 24.7137 24.6679L24.4936 24.2383H25.0419C25.7015 24.2383 26.2383 23.7155 26.2383 23.073V19.5769C26.2383 18.9344 25.7015 18.4116 25.0419 18.4116ZM15.8696 15.6924C15.8696 15.4784 16.0486 15.304 16.2684 15.304H23.4467C23.6665 15.304 23.8455 15.4784 23.8455 15.6924V18.4116C23.3067 18.4116 22.8553 18.7627 22.7057 19.2405C22.4601 19.0459 22.1694 18.9061 21.8515 18.8424V16.7766C21.8515 16.7762 21.8515 16.7762 21.8515 16.7758V16.4693C21.8515 16.2549 21.6729 16.0809 21.4527 16.0809C21.3183 16.0809 21.2051 16.15 21.1329 16.2495C20.1048 15.9562 19.1417 16.1089 18.5874 16.2565C18.5156 16.1531 18.3999 16.0809 18.2624 16.0809C18.0422 16.0809 17.8636 16.2549 17.8636 16.4693V16.7762V16.777V18.8H17.066C16.6153 18.8 16.2038 18.9519 15.8696 19.1986V15.6924ZM21.0539 17.0376V18.6202C20.0633 18.9511 19.0958 18.7425 18.6611 18.6116V17.045C19.0942 16.9133 20.0577 16.7036 21.0539 17.0376ZM15.8696 20.7423C15.8696 20.0998 16.4063 19.5769 17.066 19.5769H19.895C19.9022 19.5769 19.9086 19.5777 19.9154 19.5777C19.9213 19.5777 19.9273 19.5769 19.9333 19.5769H21.4527C22.0298 19.5769 22.5219 19.9852 22.6256 20.5329C22.5418 20.8751 22.228 21.1307 21.8515 21.1307H15.8696V20.7423ZM7.09603 15.6924C7.09603 15.4784 7.27509 15.304 7.49483 15.304H14.6732C14.8929 15.304 15.072 15.4784 15.072 15.6924V19.1986C14.7378 18.9519 14.3262 18.8 13.8756 18.8H13.078V16.777C13.078 16.7766 13.078 16.7766 13.078 16.7762V16.4693C13.078 16.2549 12.8993 16.0809 12.6792 16.0809C12.5448 16.0809 12.4315 16.15 12.3594 16.2495C11.3313 15.9562 10.3682 16.1089 9.81383 16.2569C9.74205 16.1531 9.6264 16.0809 9.48881 16.0809C9.26868 16.0809 9.09002 16.2549 9.09002 16.4693V16.7762V16.777V17.6347C9.09002 17.8491 9.26868 18.0231 9.48881 18.0231C9.70895 18.0231 9.88761 17.8491 9.88761 17.6347V17.045C10.3207 16.9133 11.2842 16.7036 12.2804 17.038V18.6202C10.9584 19.0622 9.67306 18.5405 9.64793 18.5304C9.44614 18.4446 9.21165 18.5347 9.12351 18.7309C9.10756 18.7666 9.10397 18.8035 9.09919 18.84C8.77736 18.903 8.48345 19.0444 8.23539 19.2409C8.08624 18.7627 7.6348 18.4116 7.09603 18.4116V15.6924ZM15.072 20.7423V21.1307H9.09002C8.71355 21.1307 8.3993 20.8751 8.31595 20.5329C8.41924 19.9848 8.91175 19.5769 9.48881 19.5769H11.1215C11.1287 19.5769 11.135 19.5777 11.1418 19.5777C11.1478 19.5777 11.1538 19.5769 11.1598 19.5769H13.8756C14.5352 19.5769 15.072 20.0998 15.072 20.7423ZM23.2501 25.0152L22.6519 24.2383H23.6018L24.0006 25.0152H23.2501ZM25.4407 23.073C25.4407 23.287 25.2616 23.4614 25.0419 23.4614H5.89964C5.6799 23.4614 5.50084 23.287 5.50084 23.073V19.5769C5.50084 19.3629 5.6799 19.1885 5.89964 19.1885H7.09603C7.31577 19.1885 7.49483 19.3629 7.49483 19.5769V20.3538C7.49483 20.4404 7.50719 20.524 7.52115 20.6067C7.52314 20.6176 7.52155 20.6288 7.52434 20.6393C7.66272 21.3595 8.31077 21.9076 9.09002 21.9076H21.8515C22.6308 21.9076 23.2792 21.3595 23.4172 20.6386C23.42 20.6285 23.4184 20.6172 23.4204 20.6071C23.4343 20.5244 23.4467 20.4404 23.4467 20.3538V19.5769C23.4467 19.3629 23.6258 19.1885 23.8455 19.1885H25.0419C25.2616 19.1885 25.4407 19.3629 25.4407 19.5769V23.073Z" fill="#DD9D32"/>
<path d="M3.90571 23.4615H3.50691V9.47732H5.11207C5.10768 9.5418 5.1021 9.60589 5.1021 9.67154V10.2542C5.1021 10.4686 5.28076 10.6427 5.5009 10.6427H10.6853C10.9054 10.6427 11.0841 10.4686 11.0841 10.2542V9.67154C11.0841 8.06492 9.7425 6.75818 8.09308 6.75818C6.7938 6.75818 5.68833 7.57081 5.27638 8.70042H3.50691C3.06704 8.70042 2.70932 9.04886 2.70932 9.47732V23.4615H2.31052V8.70042C2.31052 8.48639 2.48958 8.31197 2.70932 8.31197H4.7033C4.92344 8.31197 5.1021 8.13795 5.1021 7.92352C5.1021 7.7091 4.92344 7.53508 4.7033 7.53508H2.70932C2.04971 7.53508 1.51293 8.05793 1.51293 8.70042V23.4615H1.11413C0.893993 23.4615 0.715332 23.6355 0.715332 23.8499V25.4037C0.715332 25.6181 0.893993 25.7921 1.11413 25.7921H3.90571C4.12585 25.7921 4.30451 25.6181 4.30451 25.4037V23.8499C4.30451 23.6355 4.12585 23.4615 3.90571 23.4615ZM5.89969 9.67154C5.89969 8.49338 6.88353 7.53508 8.09308 7.53508C9.30263 7.53508 10.2865 8.49338 10.2865 9.67154V9.86577H5.89969V9.67154ZM3.50691 25.0152H1.51293V24.2384H1.91172H3.10811H3.50691V25.0152Z" fill="#DD9D32"/>
<path d="M25.8395 0.931396H13.4768C13.2567 0.931396 13.078 1.10542 13.078 1.31984V7.92347C13.078 8.13789 13.2567 8.31191 13.4768 8.31191H25.8395C26.0596 8.31191 26.2383 8.13789 26.2383 7.92347V1.31984C26.2383 1.10542 26.0596 0.931396 25.8395 0.931396ZM25.4407 7.53502H13.8756V1.70829H25.4407V7.53502Z" fill="#DD9D32"/>
<path d="M14.6732 7.14663H24.6431C24.8633 7.14663 25.0419 6.9726 25.0419 6.75818V2.48525C25.0419 2.27083 24.8633 2.0968 24.6431 2.0968H14.6732C14.4531 2.0968 14.2744 2.27083 14.2744 2.48525V6.75818C14.2744 6.9726 14.4531 7.14663 14.6732 7.14663ZM15.072 2.8737H24.2443V6.36973H15.072V2.8737Z" fill="#DD9D32"/>
</g>
<defs>
<clipPath id="clip0_11_6702">
<rect width="25.523" height="24.8607" fill="white" transform="translate(0.715332 0.931396)"/>
</clipPath>
</defs>
</svg>
