<svg width="25" height="25" viewBox="0 0 25 25" fill="none" xmlns="http://www.w3.org/2000/svg">
<path d="M22.5284 6.5H7.72842C6.84476 6.5 6.12842 7.21634 6.12842 8.1V22.9C6.12842 23.7837 6.84476 24.5 7.72842 24.5H22.5284C23.4121 24.5 24.1284 23.7837 24.1284 22.9V8.1C24.1284 7.21634 23.4121 6.5 22.5284 6.5ZM23.3284 8.1V22.9C23.3274 22.9691 23.3175 23.0378 23.2988 23.1044L15.694 15.5L23.2988 7.8956C23.3175 7.96217 23.3274 8.03087 23.3284 8.1ZM22.5284 7.3C22.5976 7.30094 22.6663 7.31103 22.7328 7.33L15.1284 14.9344L7.52402 7.33C7.59053 7.31103 7.65926 7.30094 7.72842 7.3H22.5284ZM6.95802 23.1044C6.93936 23.0378 6.92941 22.9691 6.92842 22.9V8.1C6.92941 8.03087 6.93936 7.96217 6.95802 7.8956L14.5628 15.5L6.95802 23.1044ZM7.72842 23.7C7.65926 23.6991 7.59053 23.689 7.52402 23.67L15.1284 16.0656L22.7328 23.67C22.6663 23.689 22.5976 23.6991 22.5284 23.7H7.72842Z" fill="#DD9D32"/>
<path d="M0.528418 7.3H4.52842C4.74933 7.3 4.92842 7.12091 4.92842 6.9C4.92842 6.67909 4.74933 6.5 4.52842 6.5H0.528418C0.307504 6.5 0.128418 6.67909 0.128418 6.9C0.128418 7.12091 0.307504 7.3 0.528418 7.3Z" fill="#DD9D32"/>
<path d="M0.528418 24.5H4.52842C4.74933 24.5 4.92842 24.3209 4.92842 24.1C4.92842 23.879 4.74933 23.7 4.52842 23.7H0.528418C0.307504 23.7 0.128418 23.879 0.128418 24.1C0.128418 24.3209 0.307504 24.5 0.528418 24.5Z" fill="#DD9D32"/>
<path d="M4.22078 11.156C4.36216 11.3258 4.61449 11.3489 4.78438 11.2076C4.95426 11.0662 4.97736 10.8138 4.83598 10.644L2.83598 8.24395C2.7574 8.15692 2.64563 8.10724 2.52838 8.10724C2.41112 8.10724 2.29935 8.15692 2.22078 8.24395L0.220776 10.644C0.0793912 10.8138 0.102493 11.0662 0.272376 11.2076C0.442259 11.3489 0.694591 11.3258 0.835976 11.156L2.12838 9.60475V21.3952L0.835976 19.844C0.694591 19.6741 0.442259 19.651 0.272376 19.7924C0.102493 19.9337 0.0793913 20.1861 0.220776 20.356L2.22078 22.756C2.29677 22.8474 2.40949 22.9003 2.52838 22.9003C2.64726 22.9003 2.75998 22.8474 2.83598 22.756L4.83598 20.356C4.92744 20.2461 4.95332 20.0957 4.90388 19.9616C4.85444 19.8274 4.73718 19.7298 4.59628 19.7056C4.45538 19.6813 4.31224 19.7341 4.22078 19.844L2.92838 21.3952V9.60475L4.22078 11.156Z" fill="#DD9D32"/>
<path d="M23.7284 0.5C23.5075 0.5 23.3284 0.679086 23.3284 0.9V4.9C23.3284 5.12091 23.5075 5.3 23.7284 5.3C23.9493 5.3 24.1284 5.12091 24.1284 4.9V0.9C24.1284 0.679086 23.9493 0.5 23.7284 0.5Z" fill="#DD9D32"/>
<path d="M6.52842 0.5C6.3075 0.5 6.12842 0.679086 6.12842 0.9V4.9C6.12842 5.12091 6.3075 5.3 6.52842 5.3C6.74933 5.3 6.92842 5.12091 6.92842 4.9V0.9C6.92842 0.679086 6.74933 0.5 6.52842 0.5Z" fill="#DD9D32"/>
<path d="M10.8358 0.643989C10.7679 0.562304 10.6703 0.511 10.5645 0.501395C10.4587 0.49179 10.3534 0.524672 10.2718 0.592789L7.87185 2.59279C7.78071 2.66879 7.72803 2.78133 7.72803 2.89999C7.72803 3.01865 7.78071 3.13119 7.87185 3.20719L10.2718 5.20719C10.3816 5.29879 10.5319 5.32488 10.6661 5.27564C10.8003 5.22639 10.898 5.10929 10.9225 4.96844C10.9469 4.82759 10.8944 4.68439 10.7846 4.59279L9.23305 3.29999H21.0234L19.4718 4.59279C19.3621 4.68439 19.3096 4.82759 19.334 4.96844C19.3585 5.10929 19.4562 5.22639 19.5904 5.27564C19.7246 5.32488 19.8749 5.29879 19.9846 5.20719L22.3846 3.20719C22.4758 3.13119 22.5285 3.01865 22.5285 2.89999C22.5285 2.78133 22.4758 2.66879 22.3846 2.59279L19.9846 0.592789C19.8749 0.501186 19.7246 0.475093 19.5904 0.52434C19.4562 0.573586 19.3585 0.69069 19.334 0.83154C19.3096 0.972389 19.3621 1.11559 19.4718 1.20719L21.0234 2.49999H9.23305L10.7846 1.20719C10.9542 1.06577 10.9772 0.813671 10.8358 0.643989Z" fill="#DD9D32"/>
</svg>
