<svg width="25" height="25" viewBox="0 0 25 25" fill="none" xmlns="http://www.w3.org/2000/svg">
<g clip-path="url(#clip0_34_6312)">
<path d="M21.7285 8.22213V3.69973C21.7285 3.2579 21.3704 2.89973 20.9285 2.89973H18.9285C18.4867 2.89973 18.1285 3.2579 18.1285 3.69973V5.23573L12.6429 0.684932C12.3444 0.437705 11.9123 0.437705 11.6137 0.684932L0.420139 9.97173C0.252176 10.111 0.14787 10.3125 0.13106 10.53C0.114249 10.7476 0.186369 10.9627 0.330939 11.1261L1.32854 12.2517C1.61642 12.5801 2.1139 12.6183 2.44854 12.3377L2.52854 12.2689V23.6997C2.52854 24.1416 2.88671 24.4997 3.32854 24.4997H20.9285C21.3704 24.4997 21.7285 24.1416 21.7285 23.6997V12.2689L21.8113 12.3377C22.1453 12.6171 22.6412 12.5789 22.9285 12.2517L23.9245 11.1261C24.0694 10.9628 24.1417 10.7477 24.125 10.5301C24.1082 10.3125 24.0038 10.111 23.8357 9.97173L21.7285 8.22213ZM18.9285 3.69973H20.9285V7.55853L18.9285 5.89973V3.69973ZM20.9285 23.6997H3.32854V11.6053L12.1285 4.30493L20.9285 11.6053V23.6997ZM22.3305 11.7213C22.3282 11.7236 22.3245 11.7236 22.3221 11.7213L12.3841 3.47733C12.236 3.35424 12.0211 3.35424 11.8729 3.47733L1.92854 11.7213L0.930939 10.5873L12.1325 1.29973L23.3285 10.5957L22.3305 11.7213Z" fill="#DD9D32"/>
<path d="M17.8084 19.86C17.6759 20.0367 17.7117 20.2874 17.8884 20.42L18.5284 20.9H6.12844V12.9L6.60844 13.54C6.74099 13.7167 6.99171 13.7525 7.16844 13.62C7.34517 13.4874 7.38099 13.2367 7.24844 13.06L6.04844 11.46C5.96972 11.3643 5.85233 11.3089 5.72844 11.3089C5.60455 11.3089 5.48716 11.3643 5.40844 11.46L4.20844 13.06C4.07589 13.2367 4.11171 13.4874 4.28844 13.62C4.46517 13.7525 4.71589 13.7167 4.84844 13.54L5.32844 12.9V21.3C5.32844 21.5209 5.50753 21.7 5.72844 21.7H18.5284L17.8884 22.18C17.7741 22.2657 17.7142 22.406 17.7313 22.5478C17.7484 22.6897 17.8399 22.8117 17.9713 22.8678C18.1027 22.924 18.2541 22.9057 18.3684 22.82L19.9684 21.62C20.0692 21.5445 20.1284 21.4259 20.1284 21.3C20.1284 21.1741 20.0692 21.0555 19.9684 20.98L18.3684 19.78C18.1917 19.6475 17.941 19.6833 17.8084 19.86Z" fill="#DD9D32"/>
</g>
<defs>
<clipPath id="clip0_34_6312">
<rect width="24" height="24" fill="white" transform="translate(0.128418 0.5)"/>
</clipPath>
</defs>
</svg>
