<svg width="22" height="17" viewBox="0 0 22 17" fill="none" xmlns="http://www.w3.org/2000/svg">
<path d="M2.29625 16.6774H19.7037C20.1798 16.6764 20.6361 16.4807 20.9728 16.1332C21.3094 15.7857 21.499 15.3146 21.5 14.8232V14.7419C21.4994 14.2288 21.3017 13.7368 20.9502 13.374C20.5987 13.0111 20.1221 12.807 19.625 12.8064C19.5255 12.8064 19.4302 12.7656 19.3598 12.693C19.2895 12.6204 19.25 12.522 19.25 12.4193V0.419312H2.75V12.4193C2.75 12.522 2.71049 12.6204 2.64016 12.693C2.56984 12.7656 2.47446 12.8064 2.375 12.8064C1.8779 12.807 1.40133 13.0111 1.04983 13.374C0.698331 13.7368 0.500595 14.2288 0.5 14.7419V14.8216C0.500594 15.3134 0.689985 15.7848 1.02668 16.1326C1.36337 16.4805 1.8199 16.6764 2.29625 16.6774ZM3.5 6.22576C3.5 6.1231 3.53951 6.02464 3.60983 5.95204C3.68016 5.87945 3.77554 5.83867 3.875 5.83867H6.875V3.12899C6.875 3.02632 6.91451 2.92786 6.98483 2.85527C7.05516 2.78268 7.15054 2.74189 7.25 2.74189H18.125C18.2245 2.74189 18.3198 2.78268 18.3902 2.85527C18.4605 2.92786 18.5 3.02632 18.5 3.12899V13.9677C18.5 14.0704 18.4605 14.1688 18.3902 14.2414C18.3198 14.314 18.2245 14.3548 18.125 14.3548H14.75C14.6505 14.3548 14.5552 14.314 14.4848 14.2414C14.4145 14.1688 14.375 14.0704 14.375 13.9677C14.375 13.865 14.4145 13.7666 14.4848 13.694C14.5552 13.6214 14.6505 13.5806 14.75 13.5806H17.75V6.19905C17.0901 6.11221 16.4767 5.80161 16.0063 5.31601C15.5359 4.83041 15.235 4.19731 15.1509 3.51609H13.25V6.61286C13.25 6.71552 13.2105 6.81398 13.1402 6.88658C13.0698 6.95917 12.9745 6.99996 12.875 6.99996C12.7755 6.99996 12.6802 6.95917 12.6098 6.88658C12.5395 6.81398 12.5 6.71552 12.5 6.61286V3.51609H7.625V6.22576C7.625 6.32843 7.58549 6.42689 7.51516 6.49948C7.44484 6.57208 7.34946 6.61286 7.25 6.61286H4.25V9.70963H7.25C7.34946 9.70963 7.44484 9.75042 7.51516 9.82301C7.58549 9.89561 7.625 9.99407 7.625 10.0967C7.625 10.1994 7.58549 10.2979 7.51516 10.3705C7.44484 10.443 7.34946 10.4838 7.25 10.4838H4.25V13.5806H8.75V12.0322C8.75 11.9296 8.78951 11.8311 8.85983 11.7585C8.93016 11.6859 9.02554 11.6451 9.125 11.6451C9.22446 11.6451 9.31984 11.6859 9.39016 11.7585C9.46049 11.8311 9.5 11.9296 9.5 12.0322V13.5806H12.5V8.93544H9.5V10.4838C9.5 10.5865 9.46049 10.685 9.39016 10.7575C9.31984 10.8301 9.22446 10.8709 9.125 10.8709C9.02554 10.8709 8.93016 10.8301 8.85983 10.7575C8.78951 10.685 8.75 10.5865 8.75 10.4838V8.54834C8.75 8.44568 8.78951 8.34722 8.85983 8.27462C8.93016 8.20203 9.02554 8.16125 9.125 8.16125H15.875C15.9745 8.16125 16.0698 8.20203 16.1402 8.27462C16.2105 8.34722 16.25 8.44568 16.25 8.54834C16.25 8.65101 16.2105 8.74947 16.1402 8.82206C16.0698 8.89466 15.9745 8.93544 15.875 8.93544H13.25V13.9677C13.25 14.0704 13.2105 14.1688 13.1402 14.2414C13.0698 14.314 12.9745 14.3548 12.875 14.3548H3.875C3.77554 14.3548 3.68016 14.314 3.60983 14.2414C3.53951 14.1688 3.5 14.0704 3.5 13.9677V6.22576Z" fill="#4D4055"/>
</svg>
